<svg width="232" height="205" viewBox="0 0 232 205" fill="none" xmlns="http://www.w3.org/2000/svg">
<rect width="232" height="204" transform="translate(0 0.181641)" fill="#DEDEDE"/>
<path d="M128.5 87.1816H103.5C102.174 87.1831 100.903 87.7103 99.9661 88.6477C99.0287 89.5851 98.5014 90.856 98.5 92.1816V112.182C98.5014 113.507 99.0287 114.778 99.9661 115.716C100.903 116.653 102.174 117.18 103.5 117.182H128.5C129.826 117.18 131.097 116.653 132.034 115.716C132.971 114.778 133.499 113.507 133.5 112.182V92.1816C133.499 90.856 132.971 89.5851 132.034 88.6477C131.097 87.7103 129.826 87.1831 128.5 87.1816ZM122.25 92.1816C122.992 92.1816 123.717 92.4016 124.333 92.8136C124.95 93.2257 125.431 93.8114 125.715 94.4966C125.998 95.1818 126.073 95.9358 125.928 96.6632C125.783 97.3907 125.426 98.0588 124.902 98.5833C124.377 99.1077 123.709 99.4649 122.982 99.6096C122.254 99.7543 121.5 99.68 120.815 99.3962C120.13 99.1124 119.544 98.6317 119.132 98.015C118.72 97.3983 118.5 96.6733 118.5 95.9316C118.501 94.9374 118.896 93.9842 119.599 93.2811C120.303 92.5781 121.256 92.1827 122.25 92.1816ZM103.5 114.682C102.837 114.682 102.201 114.418 101.732 113.949C101.263 113.481 101 112.845 101 112.182V106.898L108.409 100.312C109.124 99.6781 110.054 99.3405 111.009 99.3681C111.964 99.3956 112.873 99.7863 113.55 100.461L118.624 105.524L109.466 114.682H103.5ZM131 112.182C131 112.845 130.737 113.481 130.268 113.949C129.799 114.418 129.163 114.682 128.5 114.682H113.002L122.488 105.196C123.16 104.625 124.012 104.31 124.894 104.308C125.775 104.305 126.629 104.616 127.304 105.183L131 108.263V112.182Z" fill="#1F1F1F"/>
</svg>
