<svg width="320" height="205" viewBox="0 0 320 205" fill="none" xmlns="http://www.w3.org/2000/svg">
<rect width="320" height="204" transform="translate(0 0.181641)" fill="#DEDEDE"/>
<path d="M172.5 87.1816H147.5C146.174 87.1831 144.903 87.7103 143.966 88.6477C143.029 89.5851 142.501 90.856 142.5 92.1816V112.182C142.501 113.507 143.029 114.778 143.966 115.716C144.903 116.653 146.174 117.18 147.5 117.182H172.5C173.826 117.18 175.097 116.653 176.034 115.716C176.971 114.778 177.499 113.507 177.5 112.182V92.1816C177.499 90.856 176.971 89.5851 176.034 88.6477C175.097 87.7103 173.826 87.1831 172.5 87.1816ZM166.25 92.1816C166.992 92.1816 167.717 92.4016 168.333 92.8136C168.95 93.2257 169.431 93.8114 169.715 94.4966C169.998 95.1818 170.073 95.9358 169.928 96.6632C169.783 97.3907 169.426 98.0588 168.902 98.5833C168.377 99.1077 167.709 99.4649 166.982 99.6096C166.254 99.7543 165.5 99.68 164.815 99.3962C164.13 99.1124 163.544 98.6317 163.132 98.015C162.72 97.3983 162.5 96.6733 162.5 95.9316C162.501 94.9374 162.896 93.9842 163.599 93.2811C164.303 92.5781 165.256 92.1827 166.25 92.1816ZM147.5 114.682C146.837 114.682 146.201 114.418 145.732 113.949C145.263 113.481 145 112.845 145 112.182V106.898L152.409 100.312C153.124 99.6781 154.054 99.3405 155.009 99.3681C155.964 99.3956 156.873 99.7863 157.55 100.461L162.624 105.524L153.466 114.682H147.5ZM175 112.182C175 112.845 174.737 113.481 174.268 113.949C173.799 114.418 173.163 114.682 172.5 114.682H157.002L166.488 105.196C167.16 104.625 168.012 104.31 168.894 104.308C169.775 104.305 170.629 104.616 171.304 105.183L175 108.263V112.182Z" fill="#1F1F1F"/>
</svg>
